<svg width="32" height="32" viewBox="0 0 32 32" fill="none" xmlns="http://www.w3.org/2000/svg">
<path d="M27.1209 0.000197842C27.2268 -0.00159898 27.4438 0.00760119 27.5171 0.0797977C28.089 0.642708 28.6841 1.33409 29.2208 1.92464L30.8054 3.6649C31.789 4.74641 32.5567 5.44911 30.2893 5.36556C29.9678 5.3537 29.6018 5.35701 29.2748 5.34734C29.2433 6.04253 29.264 6.88237 29.264 7.58532V11.6131L29.2643 23.8453L29.2669 28.1305C29.2672 28.6368 29.2973 29.8852 29.2411 30.3359C29.1955 30.6845 29.0335 31.0083 28.7809 31.2551C28.5206 31.5117 28.1792 31.6724 27.8143 31.7094C27.1673 31.7773 25.7513 31.7356 25.0547 31.7353L19.6936 31.7367L2.16683 31.736C1.44718 31.7324 0.727541 31.7335 0.00793457 31.7392C0.0560654 30.807 0.0130823 29.4332 0.0137347 28.4733C7.0259 28.3935 15.7826 24.558 20.8411 19.749C23.568 17.1569 25.0043 14.0018 25.2167 10.2624C25.2468 9.73005 25.2301 9.11047 25.2305 8.56668C25.2265 7.50138 25.2287 6.43604 25.237 5.37073C24.5937 5.33059 23.668 5.47143 23.078 5.32998C22.9664 5.30321 22.875 5.26145 22.82 5.15684C22.7576 5.03803 22.7496 4.87269 22.791 4.74605C22.8892 4.44483 26.4475 0.609861 26.8201 0.235259C26.9125 0.142363 27.0068 0.0648477 27.1209 0.000197842Z" fill="#541376"/>
<path d="M8.82941 13.3764C9.7086 13.3463 10.602 13.3741 11.4824 13.3605C11.7469 13.3564 12.1367 13.3609 12.3544 13.5265C12.4835 13.8354 12.4777 14.3988 12.4721 14.7425C12.4277 17.458 12.5345 20.2094 12.4473 22.9219C12.0642 23.1472 11.423 23.4213 11.0036 23.6151C10.2152 23.9657 9.1232 24.3387 8.42798 24.6745C8.37739 21.52 8.46169 18.3537 8.41823 15.1978C8.4137 14.8687 8.3776 13.7778 8.51294 13.53C8.60409 13.4293 8.69981 13.4146 8.82941 13.3764Z" fill="#541376"/>
<path d="M17.4658 8.42017C17.9787 8.41201 20.4508 8.29795 20.731 8.56492C20.8165 8.64632 20.8386 9.02548 20.8455 9.14433C20.9133 10.3185 20.8596 11.5253 20.8596 12.7027C20.8596 13.8503 20.9118 15.019 20.8578 16.164C20.8517 16.2927 20.8437 16.4466 20.7904 16.5662C20.5081 17.2037 19.2653 18.2923 18.7068 18.7977C18.0957 19.3223 17.4564 19.8103 16.8243 20.3079C16.8559 19.4469 16.828 18.3866 16.8287 17.5159L16.8294 11.9935C16.8283 10.9613 16.8167 9.9267 16.8385 8.89518C16.8468 8.48424 17.1364 8.45046 17.4658 8.42017Z" fill="#541376"/>
<path d="M0.388279 17.823C1.26522 17.7557 2.21551 17.8329 3.09861 17.8033C3.35746 17.7947 3.70655 17.8117 3.93188 17.9489C4.1294 18.2698 4.06159 19.8121 4.06116 20.2869L4.05804 23.8281C4.05706 24.4679 4.03535 25.2559 4.06808 25.8863C3.8521 25.9275 3.63566 25.9661 3.41878 26.0023C2.13922 26.2196 1.29602 26.2914 0.00747198 26.3649C0.0918459 23.6166 -0.0830975 20.8168 0.0557135 18.0708C0.0613674 17.9586 0.300136 17.8609 0.388279 17.823Z" fill="#541376"/>
</svg>
