<svg width="41" height="34" viewBox="0 0 41 34" fill="none" xmlns="http://www.w3.org/2000/svg">
<path d="M1.96488 11.9442C3.57771 11.8523 5.95698 11.928 7.60882 11.928L18.6258 11.9283L28.7139 11.9284C30.434 11.9283 32.1589 11.9077 33.877 11.9443C34.5349 11.9675 35.2945 12.3484 35.6286 12.9545C36.1392 13.8815 35.9768 15.3408 35.9709 16.3982L35.968 20.765L35.9685 27.8879C35.968 29.0818 35.987 30.3205 35.9495 31.5135C35.9364 31.9295 35.8226 32.3778 35.5819 32.7187C35.2269 33.2253 34.693 33.5652 34.0968 33.6643C32.3447 33.7538 30.1899 33.6924 28.4003 33.6926L17.5143 33.6904L7.23238 33.6922L3.98882 33.6907C3.4007 33.692 2.8137 33.6918 2.22796 33.6893C1.25363 33.6853 0.232957 32.9642 0.0948991 31.9159C-0.0380041 30.9066 0.0172861 29.8134 0.0176265 28.7769L0.0194267 23.0774L0.0243374 17.3616C0.0227326 16.9819 0.0181627 16.5979 0.0180169 16.2179C0.017336 14.4038 -0.320978 12.3681 1.96488 11.9442ZM21.2604 31.0638C22.0265 31.1383 23.0842 31.1029 23.8786 31.1022L28.3297 31.0976L29.6764 31.1107C29.7527 28.8263 31.2913 27.2424 33.4811 27.1275C33.4772 24.2795 33.5069 21.3841 33.4733 18.5401C31.4163 18.4206 29.742 16.7298 29.6837 14.5713L24.1879 14.5561C23.4919 14.5555 22.0998 14.5111 21.477 14.5721C21.649 14.8411 22.4002 15.0541 22.6745 15.3131C22.773 15.4062 23.0249 15.5711 23.1465 15.6667C25.806 17.7383 27.078 21.2141 26.4141 24.5955C25.9411 26.9384 24.5888 28.9895 22.6559 30.2959C22.1981 30.6086 21.7575 30.8298 21.2604 31.0638ZM2.53121 18.5845L2.52523 23.7341C2.52664 24.8224 2.55485 25.9982 2.50943 27.0785C4.72871 27.3826 6.16964 28.6964 6.37276 31.0791C8.78204 31.2043 11.3051 31.0303 13.7235 31.1035C14.0656 31.1139 14.4704 31.1135 14.8126 31.0984C14.5601 30.9744 14.3085 30.8483 14.0579 30.7202C12.0122 29.6236 10.4776 27.719 9.79989 25.4353C9.15084 23.3039 9.36311 20.6303 10.3957 18.6734C11.5243 16.5346 12.5917 15.6431 14.6137 14.5956C13.9573 14.5241 12.9674 14.5567 12.2696 14.5577L8.27022 14.5655C7.73466 14.5666 6.87398 14.5954 6.36872 14.5416C6.01782 16.9019 4.86351 18.2189 2.53121 18.5845ZM17.7143 16.5688C17.1812 16.9105 17.2659 17.4178 17.2478 18.0074C15.6243 18.6197 14.7753 19.6822 15.2756 21.5727C15.7316 23.2956 18.535 23.3456 18.9107 24.9167C18.5056 26.5154 17.0241 25.7729 15.9853 25.3496C15.003 25.6245 14.7007 26.4665 15.6454 27.1034C16.0083 27.3481 16.83 27.5648 17.2664 27.6217C17.2709 28.3039 17.1458 28.8082 17.8635 29.0611C18.8737 29.0924 18.6443 28.304 18.73 27.5724C19.5786 27.2424 20.2527 26.938 20.6657 26.002C20.9512 25.3548 20.9968 24.5092 20.7586 23.8384C20.2128 22.3015 18.2334 22.0334 17.2881 21.1113C17.2003 20.8563 17.1003 20.3972 17.2491 20.1317C17.8482 19.0621 19.8932 20.7061 20.3522 19.7569C20.8948 18.6347 19.5098 18.1888 18.7007 18.0006C18.6992 17.1198 18.827 16.4734 17.7143 16.5688Z" fill="#541376"/>
<path d="M7.69705 0.00941484C8.02061 -0.010852 8.28913 -0.00353116 8.60173 0.0829181C10.4222 0.586535 12.2428 1.12879 14.0589 1.64555L26.9829 5.35676L35.1817 7.71213L37.8782 8.47562C38.8453 8.74724 40.161 8.97202 40.7129 9.8878C40.8991 10.1964 41.0482 10.7938 40.9855 11.1541C40.749 12.5186 40.2178 13.8395 39.8589 15.1788C39.0423 18.0503 38.0989 20.9263 37.3115 23.7974C37.2907 23.1911 37.3401 22.3068 37.3435 21.6671L37.3401 17.1138C37.3396 16.3631 37.3539 15.6122 37.3273 14.8619C37.268 13.2088 36.2263 11.8556 34.571 11.4801C34.5355 11.0042 34.5656 10.6545 34.6628 10.1905C33.2726 9.75253 31.8898 9.38521 30.4952 8.96474C29.1598 8.59102 27.7848 8.15698 26.4446 7.82485C27.8024 8.8365 28.4296 9.85653 29.1474 11.3242C28.5303 11.3787 27.6353 11.3589 27.0064 11.3585L23.6047 11.3569L12.9331 11.3481C14.4689 8.19843 16.5582 6.4678 20.1471 6.04675C19.5313 5.80127 18.6526 5.57679 17.996 5.38546L14.1526 4.28422C13.662 4.14729 12.4192 3.83592 12.0086 3.64183C11.5004 4.55292 11.2976 5.05237 10.3796 5.68704C9.4244 6.34736 8.2914 6.46489 7.15489 6.25529C6.62423 7.93215 6.18332 9.69323 5.62709 11.3481C4.8136 11.3836 3.83225 11.3523 3 11.352C3.23341 10.7017 3.50588 9.60746 3.71243 8.91044L5.22 3.85658C5.40207 3.24086 5.59144 2.60362 5.77149 1.98844C6.10414 0.852186 6.46882 0.286799 7.69705 0.00941484Z" fill="#541376"/>
</svg>
