<svg width="36" height="36" viewBox="0 0 36 36" fill="none" xmlns="http://www.w3.org/2000/svg">
<path d="M10.9122 2H11.2942L11.3185 2.01328C11.5641 2.14529 11.8473 2.24477 11.9416 2.58134C12.0428 2.94286 11.9935 3.51843 12.0013 3.91236C12.0133 4.51159 11.9894 5.12817 12.0024 5.72592C12.7793 5.69812 13.5912 5.75369 14.3713 5.72761C14.4846 5.72383 14.6384 5.72228 14.7499 5.72992C14.7557 5.08256 14.757 4.43516 14.7537 3.78778C14.7537 3.4922 14.7353 2.91346 14.794 2.65748C14.8297 2.50105 14.9111 2.3588 15.028 2.24888C15.1859 2.09857 15.296 2.091 15.4522 2H15.8268C16.0813 2.13204 16.3684 2.2503 16.4668 2.55176C16.5846 2.91229 16.5344 3.89284 16.5342 4.31661C16.534 4.7838 16.546 5.25483 16.531 5.72161C17.1839 5.73017 17.8369 5.73231 18.4898 5.72803C18.7522 5.72777 19.1153 5.7162 19.3723 5.72828C19.3847 5.08167 19.3698 4.4335 19.3759 3.78742C19.3795 3.41207 19.3495 3.01122 19.4186 2.64586C19.4617 2.41796 19.6433 2.21827 19.8412 2.11317C19.9141 2.07453 20.0019 2.04318 20.0688 2H20.4506C20.7002 2.13135 21.0225 2.25624 21.0966 2.58578C21.2 3.04599 21.1536 3.75384 21.1577 4.24294C21.1614 4.714 21.1686 5.261 21.1547 5.72111C21.9922 5.74175 22.8339 5.72116 23.6719 5.72711C23.7783 5.72786 23.8903 5.72309 23.9961 5.72863C24.0091 5.07186 23.9937 4.41344 23.9998 3.75698C24.0031 3.39536 23.9752 3.00996 24.0387 2.65705C24.0834 2.40934 24.2822 2.19479 24.5047 2.09146C24.5695 2.06134 24.6302 2.03676 24.692 2H25.0742C25.3331 2.14142 25.6511 2.25258 25.7261 2.61324C25.8172 3.05094 25.7742 3.72864 25.778 4.19564C25.7819 4.68812 25.7889 5.23762 25.7769 5.72069C26.1897 5.729 26.6025 5.73158 27.0153 5.72842C28.0066 5.72736 28.7772 5.74581 29.5364 6.52617C30.2589 7.26858 30.2656 7.98978 30.2652 8.94411L30.2641 10.2116C31.0638 10.2305 31.8661 10.2119 32.667 10.2179C33.0595 10.2209 33.44 10.1826 33.7431 10.4914C33.9038 10.6548 33.9013 10.7673 34 10.9403V11.2792C33.8123 11.6845 33.6616 11.9562 33.1544 11.9954C32.9289 12.0128 32.7042 12.0055 32.4783 12.0056L31.4273 12.0057L30.7055 12.0066C30.572 12.0078 30.393 12.0177 30.2642 12.0046C30.2656 12.9218 30.278 13.8804 30.2619 14.7948C30.8536 14.7855 31.4641 14.8045 32.0608 14.7973C32.4339 14.7928 32.8884 14.7835 33.2525 14.8227C33.4234 14.841 33.5978 14.9299 33.7231 15.0471C33.8964 15.2091 33.9067 15.3501 34 15.5178V15.8569C33.6511 16.6497 33.4014 16.5527 32.633 16.5489L31.3852 16.548C31.1617 16.5482 30.9388 16.5487 30.7153 16.55C30.5764 16.5509 30.4047 16.5639 30.2694 16.5485C30.2606 16.7199 30.265 16.8865 30.2625 17.0573C30.2513 17.8256 30.2805 18.6034 30.2591 19.3709C30.898 19.3775 31.537 19.3789 32.1761 19.3755C32.3655 19.3755 32.5597 19.375 32.745 19.3755C33.1225 19.3763 33.4717 19.3578 33.7503 19.6544C33.8964 19.8102 33.9084 19.9283 34 20.0958V20.4364C33.8164 20.8242 33.6741 21.0956 33.1894 21.155C32.935 21.1861 32.6681 21.1719 32.4114 21.1719L31.3055 21.1722C31.1067 21.1717 30.9081 21.1722 30.7094 21.1737C30.5788 21.1755 30.3948 21.1869 30.2692 21.17C30.2273 22.07 30.2855 23.0778 30.2589 23.9937C30.91 24.0009 31.5611 24.0027 32.212 23.9989C32.5037 23.9989 33.0764 23.9805 33.328 24.0364C33.4923 24.0714 33.6417 24.157 33.7548 24.2812C33.9036 24.4414 33.9136 24.5547 34 24.7206V25.0608C33.8458 25.377 33.7987 25.5539 33.4184 25.7256C33.352 25.7555 33.1156 25.7864 33.0423 25.7873C32.4478 25.7953 31.8388 25.7933 31.2448 25.7925C31.052 25.7922 30.4045 25.8092 30.2689 25.7848C30.2517 26.2186 30.2659 26.7173 30.2636 27.1547C30.2597 27.8698 30.2833 28.3108 29.9225 28.9544C29.7934 29.1833 29.6298 29.3911 29.4375 29.5703C28.6359 30.3044 27.8616 30.2905 26.8484 30.2748C26.5352 30.27 26.1044 30.295 25.8094 30.2794L25.7794 30.2777L25.7784 32.1869C25.7784 32.375 25.7795 32.563 25.7784 32.7517C25.7769 33.02 25.7941 33.3116 25.6562 33.5523C25.5278 33.7766 25.3295 33.8906 25.0977 33.9827C25.0772 33.9908 25.0831 33.9883 25.0644 34H24.7055C24.5316 33.8898 24.402 33.8847 24.2373 33.7128C23.9828 33.4469 24.0019 33.1639 23.9998 32.8178C23.9988 32.625 23.9997 32.4228 23.9997 32.2258L24.0006 30.2794C23.4381 30.2873 22.8536 30.265 22.2872 30.2752C22.1294 30.278 21.3744 30.288 21.2506 30.2605C21.2362 30.8745 21.2572 31.5 21.2478 32.115C21.242 32.4942 21.2862 33.0511 21.1869 33.4028C21.0833 33.7698 20.8194 33.8458 20.5561 33.9877L20.5333 34H20.1727C20.1017 33.9602 20.0102 33.9219 19.9377 33.8867C19.4673 33.6581 19.4556 33.2109 19.4642 32.7539C19.4678 32.5605 19.4644 32.3498 19.4647 32.1523L19.4656 30.2764C19.3188 30.2839 19.1088 30.2755 18.9556 30.2752L17.8898 30.2745C17.7064 30.2748 16.7564 30.2903 16.628 30.2628C16.611 30.9041 16.6359 31.567 16.6258 32.2106C16.6202 32.5725 16.6566 33.0139 16.5771 33.3628C16.5205 33.6114 16.3307 33.7966 16.1099 33.9075C16.0563 33.9344 15.9855 33.9587 15.9358 33.988L15.9159 34H15.5484C15.5086 33.9767 15.4131 33.932 15.37 33.9136C14.8461 33.6903 14.8304 33.227 14.8406 32.7322C14.8441 32.5639 14.8405 32.3634 14.8406 32.1848L14.8413 30.2769C14.691 30.2842 14.4768 30.2756 14.3199 30.2753L13.231 30.2748L12.5096 30.2766C12.3672 30.2775 12.1358 30.2902 12.0041 30.2639C11.979 31.182 12.0184 32.1128 12 33.0319C11.992 33.4269 11.8533 33.7333 11.4826 33.9105C11.4296 33.9358 11.36 33.96 11.3115 33.9883L11.292 34H10.9248C10.7573 33.9034 10.6157 33.8733 10.4692 33.7286C10.186 33.4491 10.2225 33.0566 10.2183 32.6909C10.2163 32.518 10.2182 32.3406 10.2183 32.1656L10.2176 30.2781C9.86631 30.2878 9.47184 30.2709 9.11697 30.2753C8.15891 30.2873 7.37705 30.295 6.60845 29.6173C5.39303 28.5458 5.82259 27.1889 5.72506 25.7933C5.46125 25.8114 4.92044 25.7928 4.64002 25.7927L3.63044 25.7925C3.37193 25.7925 2.86702 25.8152 2.63983 25.7395C2.19616 25.5919 2.17559 25.4045 2 25.0769V24.7027C2.03202 24.6531 2.06691 24.5695 2.09141 24.5145C2.28027 24.0897 2.64049 23.9939 3.06844 23.9986C3.30578 24.0013 3.56047 23.9983 3.80305 23.9986L5.72867 23.9992C5.71548 23.7931 5.73314 23.3286 5.73339 23.1002L5.73678 21.2572C5.5213 21.2417 5.1953 21.25 4.97492 21.2502L3.64683 21.2508C3.0603 21.2511 2.40288 21.3589 2.10069 20.7564C2.06959 20.6944 2.04631 20.6283 2.01385 20.5688L2 20.5439V20.1705C2.1077 20.0088 2.10775 19.8614 2.28225 19.7019C2.55731 19.4503 2.8738 19.4627 3.22423 19.4623C3.40947 19.4622 3.59812 19.4625 3.7847 19.4627L5.73406 19.4645C5.71852 19.1759 5.73325 18.7483 5.73327 18.4464C5.7333 17.8455 5.7283 17.2345 5.73647 16.6345C5.14598 16.6276 4.55547 16.6258 3.96495 16.6291C3.71198 16.6292 3.42888 16.6274 3.17793 16.6294C2.46833 16.6351 2.33541 16.536 2.01328 15.9446L2 15.9207V15.5468C2.10857 15.3855 2.11054 15.2378 2.28233 15.0794C2.56984 14.8143 2.91611 14.8411 3.28092 14.8393C3.45014 14.8384 3.62241 14.8392 3.79302 14.8393L5.73344 14.8409C5.72794 14.731 5.73181 14.6085 5.73291 14.4978C5.74106 13.6702 5.72239 12.839 5.73644 12.0116C5.14503 12.0043 4.55358 12.0024 3.96212 12.0058C3.71761 12.006 3.44389 12.0042 3.20114 12.0065C2.48203 12.0136 2.33952 11.9268 2.01277 11.3203L2 11.2971V10.9229C2.09838 10.7777 2.12314 10.5991 2.27353 10.463C2.64381 10.1279 3.30773 10.2172 3.78308 10.2175L5.73102 10.2189C5.7363 9.57842 5.72591 8.92797 5.73925 8.29008C5.75456 7.55766 6.05141 6.88209 6.59744 6.39077C7.34566 5.7175 8.14784 5.71197 9.09222 5.72741C9.45744 5.73338 9.8488 5.71658 10.2163 5.73483C10.2229 5.14627 10.2106 4.55519 10.218 3.96641C10.223 3.56217 10.1795 2.97621 10.2773 2.60174C10.3753 2.22685 10.6376 2.14888 10.9122 2ZM27.7227 28.4809C28.2731 28.417 28.5122 28.0034 28.5261 27.4858C28.5384 27.0259 28.5306 26.5597 28.5305 26.0997V23.4603L28.5303 15.3115L28.5305 10.4336L28.5308 8.97806C28.5308 8.50067 28.6223 7.988 28.2042 7.67739C28.0214 7.54164 27.8628 7.52389 27.6413 7.51767C27.1628 7.51023 26.6831 7.51394 26.2045 7.51423L23.5195 7.515L15.3003 7.5152L10.5472 7.51517L9.13178 7.51438C8.9333 7.51375 8.50611 7.5018 8.32741 7.52187C7.85255 7.5583 7.53517 7.81869 7.51677 8.3158C7.50214 8.71128 7.50998 9.10906 7.50995 9.50506L7.50987 11.7517L7.51014 18.6492L7.50998 24.7633L7.50991 26.7286C7.50991 27.067 7.50558 27.4164 7.51694 27.7545C7.52425 27.9719 7.66053 28.1716 7.82119 28.3091C7.96986 28.4363 8.13359 28.4756 8.32669 28.4816C8.64977 28.4912 8.98244 28.4867 9.30673 28.4864L11.0571 28.485H16.5949L23.9655 28.4853L26.3808 28.4855C26.8147 28.4855 27.2945 28.4963 27.7227 28.4809Z" fill="#541376"/>
<path d="M10.8765 10.0076C11.1608 9.994 11.5003 10.0028 11.7905 10.0029L13.4137 10.0031L18.4108 10.0033L22.8571 10.0037L24.259 10.0026C24.5241 10.002 24.782 10.0016 25.0525 10.0062C25.4083 9.98415 25.9075 10.308 25.9581 10.6848C26.0213 11.1563 25.9944 11.7968 25.9939 12.2843L25.9937 15.432L25.9942 21.8145L25.9944 23.9075C25.9944 24.2811 25.9981 24.6548 25.9899 25.0286C25.9778 25.5729 25.6788 25.8763 25.162 25.986C24.8824 26.0069 24.5333 25.9982 24.2472 25.9982L22.7559 25.9981L18.0853 25.9979H13.3131L11.8097 25.9989C11.52 25.999 11.2368 26.0013 10.9466 25.9912C10.4882 25.9751 10.0829 25.6792 10.0217 25.2058C9.99205 24.9761 10.0013 24.7355 10.0015 24.5019L10.0026 23.4676L10.0028 19.9469L10.0018 13.977L10.0018 12.0159C10.0018 11.6656 9.99623 11.3146 10.0068 10.9645C10.0236 10.4049 10.3242 10.0879 10.8765 10.0076ZM11.8353 15.2515L14.3804 15.2544C14.6076 15.2544 16.0978 10.9645 15.0623 15.2545C15.4546 15.255 19.7054 11.192 20 11.5C20.1797 11.6878 16.4014 15.9312 16.3945 16.1904C16.3894 16.4387 16.282 16.6739 16.0978 16.8406C15.7674 17.143 15.3574 17.09 14.9393 17.0896L13.972 17.0895L12.5669 17.0896C12.3514 17.0898 12.041 17.1098 11.8363 17.0847C11.8324 17.6915 11.8318 18.2983 11.8346 18.9051C12.2952 18.9001 12.7584 18.9109 13.2194 18.9059C13.4304 18.9037 13.6831 18.8963 13.8874 18.9454C14.0416 18.9818 14.1829 19.0595 14.2962 19.1702C14.4661 19.3365 14.5634 19.5632 14.5669 19.8009C14.5719 20.0428 14.4808 20.2766 14.3136 20.4513C14.0563 20.7193 13.7719 20.7436 13.4253 20.7445L12.4138 20.7452C12.2596 20.7457 11.9742 20.7633 11.8374 20.7336C11.8166 21.8679 11.845 23.0187 11.8334 24.1544L16.8675 24.157L24.1639 24.1562L24.1669 15.4697C24.1669 14.2814 24.1467 13.0271 24.1703 11.8432C23.0877 11.8299 21.9913 11.8378 20.9078 11.8377L15.319 11.8375L12.9373 11.8378C12.6959 11.8381 12.0243 11.8579 11.8365 11.8297C11.8318 12.4622 11.8309 13.0947 11.8336 13.7272C11.8338 14.2281 11.8262 14.7521 11.8353 15.2515Z" fill="#541376"/>
<rect x="11" y="11" width="14" height="14" fill="#541376"/>
</svg>
